<svg xmlns="http://www.w3.org/2000/svg" viewBox="0 0 287.04 482.23"><defs><style>.cls-1{stroke:#000;stroke-miterlimit:10;}.cls-2{fill:#9d1e81;}</style></defs><g id="Layer_2" data-name="Layer 2"><g id="Layer_1-2" data-name="Layer 1"><path class="cls-1" d="M273,284.77l-175-106.26a28.27,28.27,0,0,0-9.84-3.72c6.84-27.4,5.88-59.48-4.49-91.45-11-34-30.76-61.85-54.2-80A13.31,13.31,0,0,0,8.75,9.21C-2,39.13-2.68,76.39,9.37,113.5c10.18,31.43,27.82,57.62,49,75.75A28.1,28.1,0,0,0,55,202.68v212.5a28.28,28.28,0,0,0,42.95,24.17L273,333.09A28.26,28.26,0,0,0,273,284.77ZM218,324.28,119.76,384a18,18,0,0,1-27.29-15.36V249.25a18,18,0,0,1,27.29-15.34L218,293.58A18,18,0,0,1,218,324.28Z"/><path class="cls-2" d="M116.65,276.25v65.36a7.68,7.68,0,0,0,11.67,6.57L189,311.36a2.84,2.84,0,0,0,0-4.86l-60.64-36.82A7.68,7.68,0,0,0,116.65,276.25Z"/><path class="cls-1" d="M125.44,461.27l122.47,20.08c11.23,1.84,19.17-3.35,14.16-9.25l-59.4-69.81c-1.79-2.1-6.75-2.92-9.11-1.5L115,448C108.33,452,114.21,459.43,125.44,461.27Z"/><path class="cls-1" d="M119.27,89.15s1.52,66-15.43,82.2L118.61,177S145.87,155.53,149,132.3c0,0-18.93-7.71-21.15-24.27,0,0,62.65,45.53,143.76,38.87a11.08,11.08,0,0,0,6.48-19.33C249,102,185.39,57.79,119.27,89.15Z"/></g></g></svg>